<svg width="41" height="22" viewBox="0 0 41 22" fill="none" xmlns="http://www.w3.org/2000/svg">
<rect width="41" height="22" rx="11" fill="#ECFDF3"/>
<path d="M9.00178 15V6.27273H12.1978C12.8171 6.27273 13.3299 6.375 13.7362 6.57955C14.1424 6.78125 14.4464 7.0554 14.6481 7.40199C14.8498 7.74574 14.9506 8.13352 14.9506 8.56534C14.9506 8.92898 14.8839 9.2358 14.7504 9.4858C14.6168 9.73295 14.4379 9.93182 14.2134 10.0824C13.9918 10.2301 13.7475 10.3381 13.4805 10.4062V10.4915C13.7702 10.5057 14.0529 10.5994 14.3285 10.7727C14.6069 10.9432 14.837 11.1861 15.0188 11.5014C15.2006 11.8168 15.2915 12.2003 15.2915 12.652C15.2915 13.098 15.1864 13.4986 14.9762 13.8537C14.7688 14.206 14.4478 14.4858 14.0131 14.6932C13.5785 14.8977 13.0231 15 12.3469 15H9.00178ZM10.3185 13.8707H12.2191C12.8498 13.8707 13.3015 13.7486 13.5742 13.5043C13.8469 13.2599 13.9833 12.9545 13.9833 12.5881C13.9833 12.3125 13.9137 12.0597 13.7745 11.8295C13.6353 11.5994 13.4364 11.4162 13.1779 11.2798C12.9222 11.1435 12.6183 11.0753 12.266 11.0753H10.3185V13.8707ZM10.3185 10.0483H12.0827C12.3782 10.0483 12.6438 9.99148 12.8796 9.87784C13.1183 9.7642 13.3072 9.60511 13.4464 9.40057C13.5884 9.19318 13.6594 8.94886 13.6594 8.66761C13.6594 8.30682 13.533 8.00426 13.2802 7.75994C13.0273 7.51562 12.6396 7.39347 12.1168 7.39347H10.3185V10.0483ZM22.4656 6.27273H23.7866V12.0128C23.7866 12.6236 23.6431 13.1648 23.3562 13.6364C23.0692 14.1051 22.6658 14.4744 22.146 14.7443C21.6261 15.0114 21.0167 15.1449 20.3178 15.1449C19.6218 15.1449 19.0138 15.0114 18.494 14.7443C17.9741 14.4744 17.5707 14.1051 17.2837 13.6364C16.9968 13.1648 16.8533 12.6236 16.8533 12.0128V6.27273H18.1701V11.9062C18.1701 12.3011 18.2567 12.652 18.43 12.9588C18.6062 13.2656 18.8548 13.5071 19.1758 13.6832C19.4968 13.8565 19.8775 13.9432 20.3178 13.9432C20.761 13.9432 21.1431 13.8565 21.4641 13.6832C21.788 13.5071 22.0352 13.2656 22.2056 12.9588C22.3789 12.652 22.4656 12.3011 22.4656 11.9062V6.27273ZM25.0277 6.27273H26.5234L28.8033 10.2401H28.897L31.1768 6.27273H32.6726L29.5064 11.5739V15H28.1939V11.5739L25.0277 6.27273Z" fill="#027A48"/>
</svg>
