<svg width="110" height="22" viewBox="0 0 110 22" fill="none" xmlns="http://www.w3.org/2000/svg">
<rect width="110" height="22" rx="11" fill="#EFF8FF"/>
<path d="M16.2445 9.1108H14.915C14.8638 8.8267 14.7686 8.5767 14.6294 8.3608C14.4902 8.14489 14.3198 7.96165 14.1181 7.81108C13.9164 7.66051 13.6905 7.54687 13.4405 7.47017C13.1934 7.39347 12.9306 7.35511 12.6522 7.35511C12.1493 7.35511 11.699 7.48153 11.3013 7.73438C10.9064 7.98722 10.5939 8.35795 10.3638 8.84659C10.1365 9.33523 10.0229 9.93182 10.0229 10.6364C10.0229 11.3466 10.1365 11.946 10.3638 12.4347C10.5939 12.9233 10.9078 13.2926 11.3056 13.5426C11.7033 13.7926 12.1507 13.9176 12.6479 13.9176C12.9235 13.9176 13.1848 13.8807 13.432 13.8068C13.682 13.7301 13.9078 13.6179 14.1096 13.4702C14.3113 13.3224 14.4817 13.142 14.6209 12.929C14.763 12.7131 14.861 12.4659 14.915 12.1875L16.2445 12.1918C16.1735 12.6207 16.0357 13.0156 15.8311 13.3764C15.6294 13.7344 15.3695 14.044 15.0513 14.3054C14.736 14.5639 14.3752 14.7642 13.9689 14.9062C13.5627 15.0483 13.1195 15.1193 12.6394 15.1193C11.8837 15.1193 11.2104 14.9403 10.6195 14.5824C10.0286 14.2216 9.56268 13.706 9.22177 13.0355C8.8837 12.3651 8.71467 11.5653 8.71467 10.6364C8.71467 9.70455 8.88512 8.90483 9.22603 8.23722C9.56694 7.56676 10.0328 7.05256 10.6238 6.6946C11.2147 6.33381 11.8865 6.15341 12.6394 6.15341C13.1025 6.15341 13.5343 6.22017 13.9348 6.35369C14.3382 6.48437 14.7005 6.67756 15.0215 6.93324C15.3425 7.18608 15.6081 7.49574 15.8184 7.86222C16.0286 8.22585 16.1706 8.64205 16.2445 9.1108ZM20.475 15.1321C19.8613 15.1321 19.3258 14.9915 18.8684 14.7102C18.411 14.429 18.0559 14.0355 17.8031 13.5298C17.5502 13.0241 17.4238 12.4332 17.4238 11.7571C17.4238 11.0781 17.5502 10.4844 17.8031 9.97585C18.0559 9.46733 18.411 9.07244 18.8684 8.79119C19.3258 8.50994 19.8613 8.36932 20.475 8.36932C21.0886 8.36932 21.6241 8.50994 22.0815 8.79119C22.5389 9.07244 22.894 9.46733 23.1468 9.97585C23.3997 10.4844 23.5261 11.0781 23.5261 11.7571C23.5261 12.4332 23.3997 13.0241 23.1468 13.5298C22.894 14.0355 22.5389 14.429 22.0815 14.7102C21.6241 14.9915 21.0886 15.1321 20.475 15.1321ZM20.4792 14.0625C20.877 14.0625 21.2065 13.9574 21.4679 13.7472C21.7292 13.5369 21.9224 13.2571 22.0474 12.9077C22.1752 12.5582 22.2392 12.1733 22.2392 11.7528C22.2392 11.3352 22.1752 10.9517 22.0474 10.6023C21.9224 10.25 21.7292 9.96733 21.4679 9.75426C21.2065 9.54119 20.877 9.43466 20.4792 9.43466C20.0787 9.43466 19.7463 9.54119 19.4821 9.75426C19.2207 9.96733 19.0261 10.25 18.8983 10.6023C18.7733 10.9517 18.7108 11.3352 18.7108 11.7528C18.7108 12.1733 18.7733 12.5582 18.8983 12.9077C19.0261 13.2571 19.2207 13.5369 19.4821 13.7472C19.7463 13.9574 20.0787 14.0625 20.4792 14.0625ZM24.9483 15V8.45455H26.1713V9.51989H26.2523C26.3887 9.15909 26.6117 8.87784 26.9213 8.67614C27.231 8.47159 27.6017 8.36932 28.0336 8.36932C28.4711 8.36932 28.8375 8.47159 29.133 8.67614C29.4313 8.88068 29.6515 9.16193 29.7935 9.51989H29.8617C30.0179 9.17045 30.2665 8.89205 30.6074 8.68466C30.9483 8.47443 31.3546 8.36932 31.8262 8.36932C32.4199 8.36932 32.9043 8.5554 33.2793 8.92756C33.6571 9.29972 33.8461 9.8608 33.8461 10.6108V15H32.5719V10.7301C32.5719 10.2869 32.4512 9.96591 32.2097 9.76705C31.9682 9.56818 31.6799 9.46875 31.3446 9.46875C30.9299 9.46875 30.6074 9.59659 30.3773 9.85227C30.1472 10.1051 30.0321 10.4304 30.0321 10.8281V15H28.7623V10.6491C28.7623 10.294 28.6515 10.0085 28.4299 9.79261C28.2083 9.5767 27.9199 9.46875 27.5648 9.46875C27.3233 9.46875 27.1003 9.53267 26.8958 9.66051C26.6941 9.78551 26.5307 9.96023 26.4057 10.1847C26.2836 10.4091 26.2225 10.669 26.2225 10.9645V15H24.9483ZM35.5538 15V8.45455H36.7768V9.51989H36.8578C36.9941 9.15909 37.2172 8.87784 37.5268 8.67614C37.8365 8.47159 38.2072 8.36932 38.639 8.36932C39.0765 8.36932 39.443 8.47159 39.7385 8.67614C40.0368 8.88068 40.2569 9.16193 40.399 9.51989H40.4672C40.6234 9.17045 40.872 8.89205 41.2129 8.68466C41.5538 8.47443 41.96 8.36932 42.4316 8.36932C43.0254 8.36932 43.5098 8.5554 43.8848 8.92756C44.2626 9.29972 44.4515 9.8608 44.4515 10.6108V15H43.1774V10.7301C43.1774 10.2869 43.0566 9.96591 42.8152 9.76705C42.5737 9.56818 42.2853 9.46875 41.9501 9.46875C41.5353 9.46875 41.2129 9.59659 40.9828 9.85227C40.7527 10.1051 40.6376 10.4304 40.6376 10.8281V15H39.3677V10.6491C39.3677 10.294 39.2569 10.0085 39.0353 9.79261C38.8137 9.5767 38.5254 9.46875 38.1703 9.46875C37.9288 9.46875 37.7058 9.53267 37.5012 9.66051C37.2995 9.78551 37.1362 9.96023 37.0112 10.1847C36.889 10.4091 36.8279 10.669 36.8279 10.9645V15H35.5538ZM48.9164 15.1321C48.3027 15.1321 47.7672 14.9915 47.3098 14.7102C46.8525 14.429 46.4973 14.0355 46.2445 13.5298C45.9917 13.0241 45.8652 12.4332 45.8652 11.7571C45.8652 11.0781 45.9917 10.4844 46.2445 9.97585C46.4973 9.46733 46.8525 9.07244 47.3098 8.79119C47.7672 8.50994 48.3027 8.36932 48.9164 8.36932C49.53 8.36932 50.0655 8.50994 50.5229 8.79119C50.9803 9.07244 51.3354 9.46733 51.5882 9.97585C51.8411 10.4844 51.9675 11.0781 51.9675 11.7571C51.9675 12.4332 51.8411 13.0241 51.5882 13.5298C51.3354 14.0355 50.9803 14.429 50.5229 14.7102C50.0655 14.9915 49.53 15.1321 48.9164 15.1321ZM48.9206 14.0625C49.3184 14.0625 49.6479 13.9574 49.9093 13.7472C50.1706 13.5369 50.3638 13.2571 50.4888 12.9077C50.6167 12.5582 50.6806 12.1733 50.6806 11.7528C50.6806 11.3352 50.6167 10.9517 50.4888 10.6023C50.3638 10.25 50.1706 9.96733 49.9093 9.75426C49.6479 9.54119 49.3184 9.43466 48.9206 9.43466C48.5201 9.43466 48.1877 9.54119 47.9235 9.75426C47.6621 9.96733 47.4675 10.25 47.3397 10.6023C47.2147 10.9517 47.1522 11.3352 47.1522 11.7528C47.1522 12.1733 47.2147 12.5582 47.3397 12.9077C47.4675 13.2571 47.6621 13.5369 47.9235 13.7472C48.1877 13.9574 48.5201 14.0625 48.9206 14.0625ZM55.84 15.1278C55.3116 15.1278 54.84 14.9929 54.4252 14.723C54.0133 14.4503 53.6895 14.0625 53.4537 13.5597C53.2207 13.054 53.1042 12.4474 53.1042 11.7401C53.1042 11.0327 53.2221 10.4276 53.4579 9.92472C53.6966 9.42187 54.0233 9.03693 54.438 8.76989C54.8528 8.50284 55.323 8.36932 55.8485 8.36932C56.2548 8.36932 56.5815 8.4375 56.8287 8.57386C57.0787 8.70739 57.2718 8.86364 57.4082 9.04261C57.5474 9.22159 57.6554 9.37926 57.7321 9.51562H57.8088V6.27273H59.0829V15H57.8386V13.9815H57.7321C57.6554 14.1207 57.5446 14.2798 57.3997 14.4588C57.2576 14.6378 57.0616 14.794 56.8116 14.9276C56.5616 15.0611 56.2377 15.1278 55.84 15.1278ZM56.1213 14.0412C56.4877 14.0412 56.7974 13.9446 57.0502 13.7514C57.3059 13.5554 57.4991 13.2841 57.6298 12.9375C57.7633 12.5909 57.8301 12.1875 57.8301 11.7273C57.8301 11.2727 57.7647 10.875 57.6341 10.5341C57.5034 10.1932 57.3116 9.92756 57.0588 9.73722C56.8059 9.54687 56.4934 9.4517 56.1213 9.4517C55.7377 9.4517 55.4181 9.55114 55.1625 9.75C54.9068 9.94886 54.7136 10.2202 54.5829 10.5639C54.4551 10.9077 54.3912 11.2955 54.3912 11.7273C54.3912 12.1648 54.4565 12.5582 54.5872 12.9077C54.7179 13.2571 54.911 13.5341 55.1667 13.7386C55.4252 13.9403 55.7434 14.0412 56.1213 14.0412ZM60.9015 15V8.45455H62.1756V15H60.9015ZM61.5449 7.4446C61.3233 7.4446 61.133 7.37074 60.9739 7.22301C60.8176 7.07244 60.7395 6.89347 60.7395 6.68608C60.7395 6.47585 60.8176 6.29687 60.9739 6.14915C61.133 5.99858 61.3233 5.9233 61.5449 5.9233C61.7665 5.9233 61.9554 5.99858 62.1117 6.14915C62.2708 6.29687 62.3503 6.47585 62.3503 6.68608C62.3503 6.89347 62.2708 7.07244 62.1117 7.22301C61.9554 7.37074 61.7665 7.4446 61.5449 7.4446ZM66.9451 8.45455V9.47727H63.3699V8.45455H66.9451ZM64.3287 6.88636H65.6028V13.0781C65.6028 13.3253 65.6397 13.5114 65.7136 13.6364C65.7875 13.7585 65.8826 13.8423 65.9991 13.8878C66.1184 13.9304 66.2477 13.9517 66.3869 13.9517C66.4892 13.9517 66.5787 13.9446 66.6554 13.9304C66.7321 13.9162 66.7917 13.9048 66.8343 13.8963L67.0645 14.9489C66.9906 14.9773 66.8855 15.0057 66.7491 15.0341C66.6127 15.0653 66.4423 15.0824 66.2377 15.0852C65.9025 15.0909 65.59 15.0312 65.3002 14.9062C65.0105 14.7812 64.7761 14.5881 64.5971 14.3267C64.4181 14.0653 64.3287 13.7372 64.3287 13.3423V6.88636ZM68.3546 15V8.45455H69.6287V15H68.3546ZM68.998 7.4446C68.7765 7.4446 68.5861 7.37074 68.427 7.22301C68.2708 7.07244 68.1926 6.89347 68.1926 6.68608C68.1926 6.47585 68.2708 6.29687 68.427 6.14915C68.5861 5.99858 68.7765 5.9233 68.998 5.9233C69.2196 5.9233 69.4086 5.99858 69.5648 6.14915C69.7239 6.29687 69.8034 6.47585 69.8034 6.68608C69.8034 6.89347 69.7239 7.07244 69.5648 7.22301C69.4086 7.37074 69.2196 7.4446 68.998 7.4446ZM74.1639 15.1321C73.519 15.1321 72.9636 14.9943 72.4977 14.7188C72.0346 14.4403 71.6767 14.0497 71.4238 13.5469C71.1738 13.0412 71.0488 12.4489 71.0488 11.7699C71.0488 11.0994 71.1738 10.5085 71.4238 9.99716C71.6767 9.4858 72.0289 9.08665 72.4806 8.79972C72.9352 8.51278 73.4664 8.36932 74.0744 8.36932C74.4437 8.36932 74.8017 8.4304 75.1483 8.55256C75.4949 8.67472 75.8059 8.86648 76.0815 9.12784C76.3571 9.3892 76.5744 9.72869 76.7335 10.1463C76.8926 10.5611 76.9721 11.0653 76.9721 11.6591V12.1108H71.769V11.1562H75.7235C75.7235 10.821 75.6554 10.5241 75.519 10.2656C75.3826 10.0043 75.1909 9.7983 74.9437 9.64773C74.6994 9.49716 74.4125 9.42188 74.0829 9.42188C73.725 9.42188 73.4125 9.50994 73.1454 9.68608C72.8812 9.85937 72.6767 10.0866 72.5318 10.3679C72.3897 10.6463 72.3187 10.9489 72.3187 11.2756V12.0213C72.3187 12.4588 72.3954 12.831 72.5488 13.1378C72.7051 13.4446 72.9224 13.679 73.2008 13.8409C73.4792 14 73.8045 14.0795 74.1767 14.0795C74.4181 14.0795 74.6383 14.0455 74.8372 13.9773C75.036 13.9062 75.2079 13.8011 75.3528 13.6619C75.4977 13.5227 75.6085 13.3509 75.6852 13.1463L76.8912 13.3636C76.7946 13.7187 76.6213 14.0298 76.3713 14.2969C76.1241 14.5611 75.813 14.767 75.438 14.9148C75.0659 15.0597 74.6412 15.1321 74.1639 15.1321ZM83.2907 10.0526L82.1358 10.2571C82.0875 10.1094 82.0108 9.96875 81.9057 9.83523C81.8034 9.7017 81.6642 9.59233 81.4881 9.5071C81.312 9.42187 81.0918 9.37926 80.8276 9.37926C80.4668 9.37926 80.1657 9.46023 79.9242 9.62216C79.6827 9.78125 79.562 9.98722 79.562 10.2401C79.562 10.4588 79.6429 10.6349 79.8049 10.7685C79.9668 10.902 80.2282 11.0114 80.589 11.0966L81.6287 11.3352C82.231 11.4744 82.6799 11.6889 82.9753 11.9787C83.2708 12.2685 83.4185 12.6449 83.4185 13.108C83.4185 13.5 83.3049 13.8494 83.0776 14.1562C82.8532 14.4602 82.5392 14.6989 82.1358 14.8722C81.7353 15.0455 81.2708 15.1321 80.7424 15.1321C80.0094 15.1321 79.4114 14.9759 78.9483 14.6634C78.4853 14.348 78.2012 13.9006 78.0961 13.321L79.3276 13.1335C79.4043 13.4545 79.562 13.6974 79.8006 13.8622C80.0392 14.0241 80.3503 14.1051 80.7338 14.1051C81.1515 14.1051 81.4853 14.0185 81.7353 13.8452C81.9853 13.669 82.1103 13.4545 82.1103 13.2017C82.1103 12.9972 82.0336 12.8253 81.8801 12.6861C81.7296 12.5469 81.498 12.4418 81.1855 12.3707L80.0776 12.1278C79.4668 11.9886 79.0151 11.767 78.7225 11.4631C78.4327 11.1591 78.2878 10.7741 78.2878 10.3082C78.2878 9.92187 78.3958 9.58381 78.6117 9.29403C78.8276 9.00426 79.1259 8.77841 79.5066 8.61648C79.8873 8.4517 80.3233 8.36932 80.8148 8.36932C81.5222 8.36932 82.079 8.52273 82.4853 8.82955C82.8915 9.13352 83.16 9.54119 83.2907 10.0526Z" fill="#175CD3"/>
<path d="M95.9999 4.79346L99.7733 8.56679C100.519 9.31253 101.028 10.2628 101.234 11.2975C101.44 12.3322 101.335 13.4047 100.931 14.3794C100.527 15.3542 99.8438 16.1873 98.9667 16.7735C98.0895 17.3597 97.0582 17.6726 96.0033 17.6726C94.9483 17.6726 93.917 17.3597 93.0399 16.7735C92.1627 16.1873 91.4791 15.3542 91.0756 14.3794C90.672 13.4047 90.5666 12.3322 90.7727 11.2975C90.9787 10.2628 91.487 9.31253 92.2333 8.56679L95.9999 4.79346Z" stroke="#175CD3" stroke-width="2" stroke-linecap="round" stroke-linejoin="round"/>
</svg>
