<svg width="75" height="22" viewBox="0 0 75 22" fill="none" xmlns="http://www.w3.org/2000/svg">
<rect width="75" height="22" rx="11" fill="#EFF8FF"/>
<path d="M9.13263 15V6.27273H10.4494V10.0653H14.8002V6.27273H16.1213V15H14.8002V11.1946H10.4494V15H9.13263ZM22.0829 12.2855V8.45455H23.3613V15H22.1085V13.8665H22.0403C21.8897 14.2159 21.6483 14.5071 21.3159 14.7401C20.9863 14.9702 20.5758 15.0852 20.0843 15.0852C19.6639 15.0852 19.2917 14.9929 18.9679 14.8082C18.6468 14.6207 18.394 14.3438 18.2093 13.9773C18.0275 13.6108 17.9366 13.1577 17.9366 12.6179V8.45455H19.2108V12.4645C19.2108 12.9105 19.3343 13.2656 19.5815 13.5298C19.8287 13.794 20.1497 13.9261 20.5446 13.9261C20.7832 13.9261 21.0204 13.8665 21.2562 13.7472C21.4949 13.6278 21.6923 13.4474 21.8485 13.206C22.0076 12.9645 22.0858 12.6577 22.0829 12.2855ZM25.0733 15V8.45455H26.2963V9.51989H26.3773C26.5137 9.15909 26.7367 8.87784 27.0463 8.67614C27.356 8.47159 27.7267 8.36932 28.1586 8.36932C28.5961 8.36932 28.9625 8.47159 29.258 8.67614C29.5563 8.88068 29.7765 9.16193 29.9185 9.51989H29.9867C30.1429 9.17045 30.3915 8.89205 30.7324 8.68466C31.0733 8.47443 31.4796 8.36932 31.9512 8.36932C32.5449 8.36932 33.0293 8.5554 33.4043 8.92756C33.7821 9.29972 33.9711 9.8608 33.9711 10.6108V15H32.6969V10.7301C32.6969 10.2869 32.5762 9.96591 32.3347 9.76705C32.0932 9.56818 31.8049 9.46875 31.4696 9.46875C31.0549 9.46875 30.7324 9.59659 30.5023 9.85227C30.2722 10.1051 30.1571 10.4304 30.1571 10.8281V15H28.8873V10.6491C28.8873 10.294 28.7765 10.0085 28.5549 9.79261C28.3333 9.5767 28.0449 9.46875 27.6898 9.46875C27.4483 9.46875 27.2253 9.53267 27.0208 9.66051C26.8191 9.78551 26.6557 9.96023 26.5307 10.1847C26.4086 10.4091 26.3475 10.669 26.3475 10.9645V15H25.0733ZM37.5836 15.1449C37.1689 15.1449 36.7939 15.0682 36.4586 14.9148C36.1234 14.7585 35.8578 14.5327 35.6618 14.2372C35.4686 13.9418 35.372 13.5795 35.372 13.1506C35.372 12.7812 35.443 12.4773 35.585 12.2386C35.7271 12 35.9189 11.8111 36.1603 11.6719C36.4018 11.5327 36.6717 11.4276 36.97 11.3565C37.2683 11.2855 37.5723 11.2315 37.8819 11.1946C38.274 11.1491 38.5922 11.1122 38.8365 11.0838C39.0808 11.0526 39.2583 11.0028 39.3691 10.9347C39.4799 10.8665 39.5353 10.7557 39.5353 10.6023V10.5724C39.5353 10.2003 39.4302 9.91193 39.22 9.70739C39.0126 9.50284 38.7029 9.40057 38.291 9.40057C37.862 9.40057 37.524 9.49574 37.2768 9.68608C37.0325 9.87358 36.8635 10.0824 36.7697 10.3125L35.5723 10.0398C35.7143 9.64205 35.9217 9.32102 36.1944 9.0767C36.47 8.82955 36.7868 8.65057 37.1447 8.53977C37.5027 8.42614 37.8791 8.36932 38.274 8.36932C38.5353 8.36932 38.8123 8.40057 39.1049 8.46307C39.4004 8.52273 39.676 8.63352 39.9316 8.79545C40.1902 8.95739 40.4018 9.18892 40.5666 9.49006C40.7314 9.78835 40.8137 10.1761 40.8137 10.6534V15H39.5694V14.1051H39.5183C39.4359 14.2699 39.3123 14.4318 39.1475 14.5909C38.9828 14.75 38.7711 14.8821 38.5126 14.9872C38.2541 15.0923 37.9444 15.1449 37.5836 15.1449ZM37.8606 14.1222C38.2129 14.1222 38.514 14.0526 38.764 13.9134C39.0169 13.7741 39.2086 13.5923 39.3393 13.3679C39.4728 13.1406 39.5396 12.8977 39.5396 12.6392V11.7955C39.4941 11.8409 39.4061 11.8835 39.2754 11.9233C39.1475 11.9602 39.0012 11.9929 38.8365 12.0213C38.6717 12.0469 38.5112 12.071 38.3549 12.0938C38.1987 12.1136 38.068 12.1307 37.9629 12.1449C37.7157 12.1761 37.4899 12.2287 37.2853 12.3026C37.0836 12.3764 36.9217 12.483 36.7995 12.6222C36.6802 12.7585 36.6206 12.9403 36.6206 13.1676C36.6206 13.483 36.737 13.7216 36.97 13.8835C37.2029 14.0426 37.4998 14.1222 37.8606 14.1222ZM43.785 11.1136V15H42.5108V8.45455H43.7338V9.51989H43.8148C43.9654 9.1733 44.2012 8.89489 44.5222 8.68466C44.8461 8.47443 45.2537 8.36932 45.7452 8.36932C46.1912 8.36932 46.5819 8.46307 46.9171 8.65057C47.2523 8.83523 47.5123 9.1108 47.6969 9.47727C47.8816 9.84375 47.9739 10.2969 47.9739 10.8366V15H46.6998V10.9901C46.6998 10.5156 46.5762 10.1449 46.329 9.87784C46.0819 9.60795 45.7424 9.47301 45.3105 9.47301C45.0151 9.47301 44.7523 9.53693 44.5222 9.66477C44.2949 9.79261 44.1145 9.98011 43.981 10.2273C43.8503 10.4716 43.785 10.767 43.785 11.1136Z" fill="#175CD3"/>
<path d="M66.3334 17V15.6667C66.3334 14.9594 66.0525 14.2811 65.5524 13.781C65.0523 13.281 64.374 13 63.6667 13H58.3334C57.6262 13 56.9479 13.281 56.4478 13.781C55.9477 14.2811 55.6667 14.9594 55.6667 15.6667V17M63.6667 7.66667C63.6667 9.13943 62.4728 10.3333 61.0001 10.3333C59.5273 10.3333 58.3334 9.13943 58.3334 7.66667C58.3334 6.19391 59.5273 5 61.0001 5C62.4728 5 63.6667 6.19391 63.6667 7.66667Z" stroke="#175CD3" stroke-width="2" stroke-linecap="round" stroke-linejoin="round"/>
</svg>
