<svg width="15" height="14" viewBox="0 0 15 14" fill="none" xmlns="http://www.w3.org/2000/svg">
<path d="M0.625 2V5.75M0.625 5.75H4.375M0.625 5.75L3.525 3.025C4.38807 2.16339 5.50778 1.6056 6.71542 1.4357C7.92306 1.26579 9.15321 1.49296 10.2205 2.08298C11.2878 2.673 12.1345 3.5939 12.6329 4.70694C13.1313 5.81997 13.2545 7.06484 12.9839 8.25398C12.7133 9.44311 12.0635 10.5121 11.1326 11.2998C10.2016 12.0876 9.03984 12.5515 7.82232 12.6215C6.6048 12.6916 5.39749 12.3641 4.38229 11.6884C3.36708 11.0126 2.599 10.0252 2.19375 8.875" stroke="#344054" stroke-width="2" stroke-linecap="round" stroke-linejoin="round"/>
</svg>
