<svg width="45" height="22" viewBox="0 0 45 22" fill="none" xmlns="http://www.w3.org/2000/svg">
<rect width="45" height="22" rx="11" fill="#FEF3F2"/>
<path d="M13.9688 8.56534C13.9233 8.16193 13.7358 7.84943 13.4062 7.62784C13.0767 7.40341 12.6619 7.29119 12.1619 7.29119C11.804 7.29119 11.4943 7.34801 11.233 7.46165C10.9716 7.57244 10.7685 7.72585 10.6236 7.92188C10.4815 8.11506 10.4105 8.33523 10.4105 8.58239C10.4105 8.78977 10.4588 8.96875 10.5554 9.11932C10.6548 9.26989 10.7841 9.39631 10.9432 9.49858C11.1051 9.59801 11.2784 9.68182 11.4631 9.75C11.6477 9.81534 11.8253 9.86932 11.9957 9.91193L12.848 10.1335C13.1264 10.2017 13.4119 10.294 13.7045 10.4105C13.9972 10.527 14.2685 10.6804 14.5185 10.8707C14.7685 11.0611 14.9702 11.2969 15.1236 11.5781C15.2798 11.8594 15.358 12.196 15.358 12.5881C15.358 13.0824 15.2301 13.5213 14.9744 13.9048C14.7216 14.2884 14.3537 14.5909 13.8707 14.8125C13.3906 15.0341 12.8097 15.1449 12.1278 15.1449C11.4744 15.1449 10.9091 15.0412 10.4318 14.8338C9.95455 14.6264 9.58097 14.3324 9.31108 13.9517C9.04119 13.5682 8.89205 13.1136 8.86364 12.5881H10.1847C10.2102 12.9034 10.3125 13.1662 10.4915 13.3764C10.6733 13.5838 10.9048 13.7386 11.1861 13.8409C11.4702 13.9403 11.7812 13.9901 12.1193 13.9901C12.4915 13.9901 12.8224 13.9318 13.1122 13.8153C13.4048 13.696 13.6349 13.5312 13.8026 13.321C13.9702 13.108 14.054 12.8594 14.054 12.5753C14.054 12.3168 13.9801 12.1051 13.8324 11.9403C13.6875 11.7756 13.4901 11.6392 13.2401 11.5312C12.9929 11.4233 12.7131 11.3281 12.4006 11.2457L11.3693 10.9645C10.6705 10.7741 10.1165 10.4943 9.70739 10.125C9.30114 9.75568 9.09801 9.26705 9.09801 8.65909C9.09801 8.15625 9.23438 7.71733 9.5071 7.34233C9.77983 6.96733 10.1491 6.67614 10.6151 6.46875C11.081 6.25852 11.6065 6.15341 12.1918 6.15341C12.7827 6.15341 13.304 6.2571 13.7557 6.46449C14.2102 6.67188 14.5682 6.95739 14.8295 7.32102C15.0909 7.68182 15.2273 8.09659 15.2386 8.56534H13.9688ZM16.9315 15V6.27273H22.4031V7.40625H18.2482V10.0653H22.1175V11.1946H18.2482V13.8665H22.4542V15H16.9315ZM24.1619 15V6.27273H25.4787V13.8665H29.4332V15H24.1619ZM30.9354 15V6.27273H32.2521V13.8665H36.2067V15H30.9354Z" fill="#B42318"/>
</svg>
